<svg enable-background="new 0 0 60 60" height="512" viewBox="0 0 60 60" width="512" xmlns="http://www.w3.org/2000/svg"><g fill="#a2abbd"><path d="m57 4h-7v-3c0-.553-.447-1-1-1h-7c-.553 0-1 .447-1 1v3h-22v-3c0-.553-.447-1-1-1h-7c-.553 0-1 .447-1 1v3h-7c-.553 0-1 .447-1 1v11 43c0 .553.447 1 1 1h54c.553 0 1-.447 1-1v-43-11c0-.553-.447-1-1-1zm-14-2h5v3 3h-5v-3zm-31 0h5v3 3h-5v-3zm-8 4h6v3c0 .553.447 1 1 1h7c.553 0 1-.447 1-1v-3h22v3c0 .553.447 1 1 1h7c.553 0 1-.447 1-1v-3h6v9h-52zm0 52v-41h52v41z"/><path d="m38 23h-7-2-7-2-9v9 2 7 2 9h9 2 7 2 7 2 9v-9-2-7-2-9h-9zm-7 2h7v7h-7zm7 16h-7v-7h7zm-16-7h7v7h-7zm0-9h7v7h-7zm-9 0h7v7h-7zm0 9h7v7h-7zm7 16h-7v-7h7zm9 0h-7v-7h7zm9 0h-7v-7h7zm9 0h-7v-7h7zm0-9h-7v-7h7zm0-16v7h-7v-7z"/></g></svg>