<svg enable-background="new 0 0 60 60" viewBox="0 0 60 60" xmlns="http://www.w3.org/2000/svg"><path d="m3 42.5h10v14h-10z" fill="#7ed09e"/><path d="m18 33.5h10v23h-10z" fill="#71c285"/><path d="m33 25.5h10v31h-10z" fill="#4fba6f"/><path d="m48 17.5h10v39h-10z" fill="#24ae5f"/><path d="m59 57.5h-58c-.552 0-1-.447-1-1s.448-1 1-1h58c.552 0 1 .447 1 1s-.448 1-1 1z" fill="#556080"/><g fill="#bdc3c7"><path d="m8.03 27.83c-.346 0-.682-.179-.867-.5-.276-.479-.112-1.09.366-1.366l38.971-22.5c.478-.277 1.089-.112 1.366.366.276.479.112 1.09-.366 1.366l-38.971 22.5c-.157.091-.33.134-.499.134z"/><path d="m47.001 5.33c-.032 0-.064-.002-.098-.005l-8.562-.83c-.549-.053-.952-.542-.898-1.092.053-.549.537-.954 1.092-.898l8.562.83c.549.053.952.542.898 1.092-.05.516-.485.903-.994.903z"/><path d="m43.437 13.16c-.139 0-.279-.028-.414-.09-.503-.229-.725-.821-.496-1.324l3.562-7.83c.229-.503.822-.727 1.324-.496.503.229.725.821.496 1.324l-3.562 7.83c-.166.368-.53.586-.91.586z"/></g></svg>