<svg enable-background="new 0 0 32 32" height="512" viewBox="0 0 32 32" width="512" xmlns="http://www.w3.org/2000/svg"><g fill="#a2abbd"><path d="m29 0h-22c-1.657 0-3 1.342-3 3v2h-1c-1.657 0-3 1.342-3 3v20c0 2.209 1.791 4 4 4h24c2.209 0 4-1.791 4-4v-25c0-1.658-1.344-3-3-3zm1 28c0 1.102-.898 2-2 2h-24c-1.103 0-2-.898-2-2v-20c0-.552.448-1 1-1h1v20c0 .553.447 1 1 1s1-.447 1-1v-24c0-.552.448-1 1-1h22c.551 0 1 .448 1 1z"/><path d="m19.498 13.005h8c.277 0 .5-.224.5-.5s-.223-.5-.5-.5h-8c-.275 0-.5.224-.5.5s.225.5.5.5z"/><path d="m19.498 10.005h8c.277 0 .5-.224.5-.5s-.223-.5-.5-.5h-8c-.275 0-.5.224-.5.5s.225.5.5.5z"/><path d="m19.498 7.005h8c.277 0 .5-.224.5-.5s-.223-.5-.5-.5h-8c-.275 0-.5.224-.5.5s.225.5.5.5z"/><path d="m16.5 27.004h-8c-.276 0-.5.225-.5.5 0 .277.224.5.5.5h8c.275 0 .5-.223.5-.5 0-.275-.224-.5-.5-.5z"/><path d="m16.5 24.004h-8c-.276 0-.5.225-.5.5 0 .277.224.5.5.5h8c.275 0 .5-.223.5-.5 0-.275-.224-.5-.5-.5z"/><path d="m16.5 21.004h-8c-.276 0-.5.225-.5.5 0 .277.224.5.5.5h8c.275 0 .5-.223.5-.5 0-.275-.224-.5-.5-.5z"/><path d="m27.5 27.004h-8c-.277 0-.5.225-.5.5 0 .277.223.5.5.5h8c.275 0 .5-.223.5-.5 0-.275-.225-.5-.5-.5z"/><path d="m27.5 24.004h-8c-.277 0-.5.225-.5.5 0 .277.223.5.5.5h8c.275 0 .5-.223.5-.5 0-.275-.225-.5-.5-.5z"/><path d="m27.5 21.004h-8c-.277 0-.5.225-.5.5 0 .277.223.5.5.5h8c.275 0 .5-.223.5-.5 0-.275-.225-.5-.5-.5z"/><path d="m27.5 15.004h-19c-.276 0-.5.224-.5.5s.224.5.5.5h19c.275 0 .5-.224.5-.5s-.225-.5-.5-.5z"/><path d="m27.5 18.004h-19c-.276 0-.5.225-.5.5 0 .277.224.5.5.5h19c.275 0 .5-.223.5-.5 0-.275-.225-.5-.5-.5z"/><path d="m9 13h7c.553 0 1-.447 1-1v-6.996c0-.553-.447-1-1-1h-7c-.553 0-1 .447-1 1v6.996c0 .552.447 1 1 1zm1-7h5v5h-5z"/></g></svg>