<svg enable-background="new 0 0 612.008 612.007" height="512" viewBox="0 0 612.008 612.007" width="512" xmlns="http://www.w3.org/2000/svg"><path d="m612.008 89.517c-.071-2.462-.762-4.587-1.931-6.749-.354-.691-.071-1.541-.585-2.196-.248-.266-.584-.23-.832-.443-.283-.354-.283-.797-.514-1.081-2.285-2.25-5.084-3.614-8.06-4.145-.319-.036-.479.124-.762.071-2.692-.336-5.509-.177-8.024.939l-582.276 255.393c-5.916 2.604-9.547 8.732-8.963 15.198.514 6.465 5.154 11.868 11.514 13.409l131.717 31.919 64.034 136.624c.443.886 1.275 1.329 1.877 2.091.284.478.106 1.08.514 1.505.584.744 1.523 1.099 2.285 1.665.584.496 1.098.992 1.877 1.364 2.285 1.258 4.641 2.108 7.192 2.108.584 0 1.098-.036 1.701-.106 2.869-.319 5.296-1.683 7.439-3.348.248-.213.655-.106.939-.337l100.913-89.028 99.851 32.753c7.439 2.32 15.57-1.223 18.688-8.396l160.768-372.94c.319-.903.071-1.895.248-2.852.32-1.204.39-2.178.39-3.418zm-374.427 299.818c-.283.194-.177.566-.443.779-2.001 2.055-3.702 4.429-4.322 7.333l-16.987 77.639-42.477-90.764 262.141-170.865zm197.292-211.711-283.68 184.876-88.851-21.504zm-189.09 302.44 13.037-59.73 39.82 13.056zm182.483-36.064-150.847-49.51 279.11-248.06z" fill="#727e92"/></svg>