<svg enable-background="new 0 0 512.002 512.002" height="512" viewBox="0 0 512.002 512.002" width="512" xmlns="http://www.w3.org/2000/svg"><g fill="#a2abbd"><path d="m394.667 42.667h-128c-11.782 0-21.333 9.551-21.333 21.333v128c0 11.782 9.551 21.333 21.333 21.333h128c11.782 0 21.333-9.551 21.333-21.333v-128c0-11.782-9.551-21.333-21.333-21.333zm-104.32 149.333c7.707-22.268 32.007-34.072 54.275-26.365 12.366 4.28 22.085 13.999 26.365 26.365zm18.986-74.667c0-11.782 9.551-21.333 21.333-21.333 11.783 0 21.334 9.551 21.334 21.333s-9.551 21.333-21.333 21.333c-11.782.001-21.334-9.55-21.334-21.333zm85.334 74.667h-1.387c-4.028-18.843-16.331-34.868-33.493-43.627 17.25-16.053 18.221-43.051 2.167-60.301-16.053-17.25-43.051-18.221-60.301-2.167-17.25 16.053-18.221 43.051-2.167 60.301.696.748 1.419 1.471 2.167 2.167-17.203 8.734-29.548 24.763-33.6 43.627h-1.387v-128h128v128z"/><path d="m432.429.002c-.072-.001-.144-.002-.215-.002h-282.88c-2.835-.016-5.56 1.097-7.573 3.093l-85.334 85.334c-1.997 2.013-3.11 4.738-3.093 7.573v389.547c.058 14.586 11.868 26.395 26.453 26.453h352c14.668.177 26.701-11.57 26.878-26.238.001-.072.001-.144.002-.215v-458.667c.177-14.667-11.57-26.701-26.238-26.878zm4.905 485.545c0 2.828-2.292 5.12-5.12 5.12h-352c-2.818.236-5.293-1.858-5.529-4.675-.012-.148-.018-.296-.018-.445v-385.173l64-64v44.16c-.057 2.627-2.173 4.743-4.8 4.8h-27.2v21.333h32c12.352-2.351 21.299-13.133 21.333-25.707v-59.627h272.213c2.828 0 5.12 2.292 5.12 5.12v459.094z"/><path d="m192 256h170.667v21.333h-170.667z"/><path d="m149.333 309.333h213.333v21.333h-213.333z"/><path d="m149.333 362.667h213.333v21.333h-213.333z"/><path d="m149.333 416h170.667v21.333h-170.667z"/><path d="m341.334 416h21.333v21.333h-21.333z"/></g></svg>