<svg enable-background="new 0 0 58 58" height="512" viewBox="0 0 58 58" width="512" xmlns="http://www.w3.org/2000/svg"><g fill="#a2abbd"><path d="m54.319 37.839c.443-1.921.681-3.879.681-5.839 0-9.095-4.631-17.377-12.389-22.153-.473-.29-1.087-.143-1.376.327-.29.471-.143 1.086.327 1.376 7.162 4.41 11.438 12.054 11.438 20.45 0 1.726-.2 3.451-.573 5.147-.461-.096-.938-.147-1.427-.147-3.86 0-7 3.141-7 7s3.14 7 7 7 7-3.141 7-7c0-2.659-1.491-4.976-3.681-6.161zm-3.319 11.161c-2.757 0-5-2.243-5-5s2.243-5 5-5 5 2.243 5 5-2.243 5-5 5z"/><path d="m38.171 54.182c-2.915 1.206-6 1.818-9.171 1.818-6.385 0-12.527-2.575-17.017-7.092 1.246-1.265 2.017-2.997 2.017-4.908 0-3.859-3.14-7-7-7s-7 3.141-7 7 3.14 7 7 7c1.226 0 2.378-.319 3.381-.875 4.879 5.011 11.613 7.875 18.619 7.875 3.435 0 6.778-.663 9.936-1.971.51-.211.753-.796.542-1.307-.211-.509-.797-.751-1.307-.54zm-36.171-10.182c0-2.757 2.243-5 5-5s5 2.243 5 5-2.243 5-5 5-5-2.243-5-5z"/><path d="m4 31.213c.024.002.048.003.071.003.521 0 .959-.402.997-.93.712-10.089 7.586-18.52 17.22-21.314.854 2.902 3.537 5.028 6.712 5.028 3.86 0 7-3.141 7-7s-3.14-7-7-7c-3.851 0-6.985 3.127-6.999 6.975-10.581 2.947-18.15 12.145-18.928 23.171-.039.55.376 1.029.927 1.067zm25-29.213c2.757 0 5 2.243 5 5s-2.243 5-5 5-5-2.243-5-5 2.243-5 5-5z"/></g></svg>