<svg enable-background="new 0 0 431.998 431.998" height="512" viewBox="0 0 431.998 431.998" width="512" xmlns="http://www.w3.org/2000/svg"><g fill="#a2abbd"><path d="m80.102 192h192v16h-192z"/><path d="m80.102 239.998v16h155.714l16-16z"/><path d="m80.102 287.998v16h107.711l16.001-16z"/><path d="m80.102 336h80v16h-80z"/><path d="m411.213 171.106-22.628-22.626c-6.245-6.245-16.382-6.246-22.627-.001-57.747 57.747-115.648 115.648-173.855 173.854v45.662c38.518 0 28.774.018 44.915-.068 8.351-8.351 45.207-45.206 83.085-83.083v115.154c0 8.836-7.163 16-16 16h-256c-8.837 0-16-7.164-16-16v-288c0-8.837 7.163-16 16-16h32.003v32.001h191.997v-32l32-.001c8.837 0 16 7.163 16 16v59.426l16-16.111v-43.315c0-17.674-14.327-32-32-32h-34.764c-5.138-14.522-17.041-25.849-31.944-30.134-7.367-2.118-13.037-7.788-15.156-15.155-5.765-20.046-24.238-34.709-46.137-34.709-21.898 0-40.37 14.663-46.134 34.706-2.122 7.376-7.806 13.039-15.181 15.164-14.897 4.293-26.81 15.608-31.942 30.128h-34.743c-17.673 0-32 14.326-32 32v288c0 17.673 14.327 32 32 32h256c17.673 0 32-14.327 32-32v-131.153c34.399-34.398 66.437-66.437 75.11-75.111 6.245-6.246 6.245-16.383.001-22.628zm-315.109-75.364c.11-14.066 9.614-26.606 23.112-30.496 12.71-3.662 22.478-13.426 26.128-26.116 3.917-13.62 16.565-23.13 30.758-23.13 14.194 0 26.842 9.51 30.758 23.13 3.652 12.698 13.413 22.459 26.111 26.11 13.618 3.918 23.13 16.566 23.13 30.759v16h-159.997zm134.248 256.223c-4.149.023-5.848.03-11.589.032l-10.661-10.661v-12.375c3.966-3.966 6.709-6.709 10.778-10.778l22.627 22.627zm22.468-22.468-22.627-22.627 101.824-101.823 22.627 22.628zm113.137-113.137-22.627-22.627 11.314-11.314 22.628 22.627zm22.628-22.626-22.628-22.628 11.314-11.313 22.628 22.627z"/><circle cx="176.342" cy="48" r="12"/></g></svg>