<svg enable-background="new 0 0 480 480" height="512" viewBox="0 0 480 480" width="512" xmlns="http://www.w3.org/2000/svg"><g fill="#727e92"><path d="m216 72h216v16h-216z"/><path d="m216 104h136v16h-136z"/><path d="m216 136h136v16h-136z"/><path d="m280 40h152v16h-152z"/><path d="m248 40h16v16h-16z"/><path d="m232 320h16v16h-16z"/><path d="m133.656 53.656-11.312-11.312-16 16c-3.123 3.124-3.123 8.188 0 11.312l16 16 11.312-11.312-10.344-10.344z"/><path d="m197.656 58.344-16-16-11.312 11.312 10.344 10.344-10.344 10.344 11.312 11.312 16-16c3.123-3.124 3.123-8.188 0-11.312z"/><path d="m126.697 56h50.6v15.992h-50.6z" transform="matrix(.3165 -.9486 .9486 .3165 43.1798 187.9208)"/><path d="m416 248v-64h-16v64h-16v-80h-16v80h-16v-40h-16v40h-16v-48h-16v48h-16v-32h-16v32h-16v16h176v-16z"/><path d="m424 0h-368c-26.499.026-47.974 21.501-48 48v157.008.072 90.92 24c.026 26.499 21.501 47.974 48 48h99.056l-32 64h-43.056c-13.255 0-24 10.745-24 24s10.745 24 24 24h320c13.255 0 24-10.745 24-24s-10.745-24-24-24h-43.056l-32-64h99.056c26.499-.026 47.974-21.501 48-48v-272c-.026-26.499-21.501-47.974-48-48zm-400 112.56 18.184 21.648c1.52 1.811 3.764 2.856 6.128 2.856h24.488c2.364 0 4.608-1.045 6.128-2.856l18.192-21.648 17.952 5.832 1.984 28.184c.164 2.357 1.362 4.521 3.272 5.912l19.816 14.4c1.917 1.384 4.345 1.855 6.64 1.288l27.464-6.824 11.104 15.272-14.968 24c-1.24 2.012-1.527 4.469-.784 6.712l7.576 23.288c.729 2.246 2.412 4.056 4.6 4.944l26.224 10.632v18.88l-26.24 10.632c-2.193.884-3.879 2.699-4.6 4.952l-2.4 7.336h-46.088c17.928-37.536 2.032-82.499-35.504-100.427-22.047-10.53-47.833-9.712-69.168 2.195zm0 96.24c25.876-20.187 63.218-15.575 83.404 10.302 15.586 19.978 16.789 47.642 2.996 68.898h-86.4zm376 239.2c4.418 0 8 3.582 8 8s-3.582 8-8 8h-320c-4.418 0-8-3.582-8-8s3.582-8 8-8zm-60.944-16h-198.112l32-64h134.112zm116.944-112c0 17.673-14.327 32-32 32h-368c-17.673 0-32-14.327-32-32v-16h90.576.072 341.352zm0-32h-261.96l24.968-10.12c3.016-1.224 4.99-4.153 4.992-7.408v-29.672c.001-3.258-1.973-6.191-4.992-7.416l-27.808-11.248-5.264-16.2 15.856-25.44c1.72-2.764 1.593-6.294-.32-8.928l-17.44-24c-1.915-2.637-5.237-3.849-8.4-3.064l-29.088 7.2-13.744-9.984-2.104-29.84c-.229-3.253-2.41-6.042-5.512-7.048l-28.2-9.168c-3.103-.988-6.495-.013-8.6 2.472l-19.256 22.92h-17.064l-19.264-22.92c-2.106-2.488-5.503-3.464-8.608-2.472l-.192.072v-47.736c0-17.673 14.327-32 32-32h368c17.673 0 32 14.327 32 32z"/></g></svg>